<svg width="39" height="27" viewBox="0 0 39 27" fill="none" xmlns="http://www.w3.org/2000/svg">
<path d="M24.8251 0.00342727C24.3999 0.0785219 24.0588 0.387737 23.9392 0.79855C23.8196 1.21378 23.9436 1.65552 24.2581 1.94706L34.6767 12.3367H1.18855C1.15311 12.3367 1.11767 12.3367 1.08224 12.3367C0.457656 12.3676 -0.029606 12.8977 0.00140176 13.5205C0.0324096 14.1434 0.563967 14.6293 1.18855 14.5983H34.6767L24.2581 24.9879C23.9215 25.2618 23.7664 25.6991 23.8639 26.1232C23.9614 26.5429 24.2936 26.8742 24.7144 26.9713C25.1396 27.0685 25.5782 26.9139 25.8528 26.5782L38.2204 14.2803L39 13.4675L38.2204 12.6547L25.8528 0.356815C25.618 0.105027 25.277 -0.0230763 24.9314 0.00342727C24.896 0.00342727 24.8606 0.00342727 24.8251 0.00342727Z" fill="black"/>
</svg>
