<svg width="35" height="35" viewBox="0 0 35 35" fill="none" xmlns="http://www.w3.org/2000/svg">
<path d="M34.4353 10.5316L32.2659 8.3528C32.0145 8.10035 31.6129 8.0784 31.3342 8.30067C30.7085 8.80557 30.009 9.06076 29.2549 9.06076C27.4406 9.06076 25.9679 7.57899 25.9679 5.7597C25.9679 5.00235 26.222 4.29988 26.722 3.66876C26.9461 3.38887 26.9242 2.9855 26.6728 2.73305L24.5034 0.557036C23.7657 -0.186594 22.4323 -0.183849 21.6973 0.554293L17.9458 4.29714L18.9076 5.26303C19.1808 5.53744 19.1808 5.98197 18.9076 6.25637C18.771 6.39357 18.5907 6.46217 18.4131 6.46217C18.2327 6.46217 18.0551 6.39357 17.9185 6.25637L16.954 5.28773L0.571054 21.6311C0.202191 22.0016 0 22.501 0 23.0388C0 23.5794 0.202191 24.0788 0.571054 24.4492L2.74051 26.628C2.99188 26.8804 3.3908 26.9051 3.67223 26.6801C4.33618 26.145 5.10123 25.8487 5.82256 25.8487C7.63408 25.8487 9.10953 27.3305 9.10953 29.1497C9.10953 29.9483 8.82537 30.7056 8.30896 31.2791C8.06032 31.559 8.07125 31.9816 8.33629 32.2477L10.503 34.4238C10.8719 34.7942 11.3719 35 11.9074 35C12.443 35 12.943 34.7942 13.3118 34.4238L29.6401 18.0255L28.6893 17.0733C28.4161 16.7989 28.4161 16.3544 28.6893 16.08C28.9652 15.8056 29.4051 15.8056 29.6784 16.08L30.6292 17.0321L34.3342 13.3113C34.7195 13.0012 34.9599 12.5402 34.9955 12.0353C35.0337 11.4755 34.8288 10.9267 34.4353 10.5316ZM21.8476 9.20894C21.711 9.34614 21.5334 9.41474 21.353 9.41474C21.1727 9.41474 20.9951 9.34614 20.8585 9.20894L19.8776 8.22383C19.6043 7.94943 19.6043 7.5049 19.8776 7.2305C20.1508 6.9561 20.5907 6.9561 20.8667 7.2305L21.8476 8.2156C22.1208 8.49 22.1208 8.93454 21.8476 9.20894ZM24.793 12.167C24.6564 12.3042 24.4788 12.3728 24.2985 12.3728C24.1209 12.3728 23.9405 12.3042 23.8039 12.167L22.823 11.1819C22.5498 10.9075 22.5498 10.4602 22.823 10.1886C23.0962 9.91415 23.5389 9.91415 23.8121 10.1886L24.793 11.1737C25.0662 11.4481 25.0662 11.8926 24.793 12.167ZM27.7384 15.125C27.6018 15.2622 27.4242 15.3309 27.2439 15.3309C27.0663 15.3309 26.886 15.2622 26.7493 15.125L25.7684 14.1399C25.4952 13.8655 25.4952 13.421 25.7684 13.1466C26.0417 12.8722 26.4843 12.8722 26.7575 13.1466L27.7384 14.1317C28.0117 14.4061 28.0117 14.8506 27.7384 15.125Z" fill="#D9D9D9"/>
</svg>
