<svg width="17" height="17" viewBox="0 0 17 17" fill="none" xmlns="http://www.w3.org/2000/svg">
<path d="M8.5 0C5.89868 0 3.78219 2.15532 3.78219 4.80435C3.78219 6.68105 4.90919 8.99805 6.01067 10.8993C7.11074 12.8005 8.21081 14.2687 8.21081 14.2687L8.5 14.6512L8.78919 14.2687C8.78919 14.2687 9.88926 12.8005 10.9893 10.8993C12.0908 8.99805 13.2178 6.68105 13.2178 4.80435C13.2178 2.15532 11.1013 0 8.5 0ZM8.5 0.73913C10.7086 0.73913 12.492 2.5552 12.492 4.80435C12.492 6.36201 11.4415 8.66457 10.3656 10.5239C9.43279 12.1336 8.73391 13.0604 8.5 13.378C8.26609 13.0604 7.56721 12.1336 6.63442 10.5239C5.55846 8.66457 4.50801 6.36201 4.50801 4.80435C4.50801 2.5552 6.29136 0.73913 8.5 0.73913ZM8.5 2.95652C7.502 2.95652 6.68546 3.78804 6.68546 4.80435C6.68546 5.82065 7.502 6.65217 8.5 6.65217C9.498 6.65217 10.3145 5.82065 10.3145 4.80435C10.3145 3.78804 9.498 2.95652 8.5 2.95652ZM8.5 3.69565C9.10532 3.69565 9.58873 4.18792 9.58873 4.80435C9.58873 5.42077 9.10532 5.91304 8.5 5.91304C7.89468 5.91304 7.41127 5.42077 7.41127 4.80435C7.41127 4.18792 7.89468 3.69565 8.5 3.69565ZM2.07538 11.087L0 17H17L14.9246 11.087H12.1475C12.0058 11.341 11.864 11.5879 11.7222 11.8261H14.4143L15.968 16.2609H1.03202L2.58572 11.8261H5.27777C5.13601 11.5879 4.99425 11.341 4.85248 11.087H2.07538Z" fill="black"/>
</svg>
