<svg width="19" height="23" viewBox="0 0 19 23" fill="none" xmlns="http://www.w3.org/2000/svg">
<path d="M0.741377 3.58144C0.722862 3.93002 0.637894 5.01845 1.23129 6.79881C1.82296 8.57886 3.07727 11.0977 5.70274 14.5432C8.3282 17.9887 10.4316 19.8764 11.9979 20.9284C13.5624 21.98 14.6426 22.1996 14.9862 22.2777L15.0088 22.2815C15.4083 22.3497 15.703 22.1949 16.034 22.0145C16.3634 21.8339 16.7066 21.5902 17.0392 21.3305C17.7047 20.8095 18.3123 20.2344 18.5627 19.9661C19.143 19.3492 19.1147 18.5048 18.6275 18.0399C18.2816 17.707 15.403 15.1391 14.9308 14.7475C14.4939 14.3566 13.9209 14.3861 13.3707 14.5803C12.9566 14.7271 11.8455 15.1491 11.5224 15.2725C11.3062 15.0801 10.5037 14.3423 8.8597 12.1848L8.85815 12.1827L8.85641 12.1824C7.17494 10.0114 6.70609 9.05301 6.58977 8.80516C6.79234 8.53747 7.49661 7.61124 7.76301 7.24485C8.11201 6.80241 8.26956 6.24955 8.05018 5.7296L8.04901 5.72409L8.04592 5.72003C7.92938 5.458 7.45063 4.47668 6.9535 3.46924C6.7058 2.96567 6.45772 2.46557 6.26042 2.0678C6.06256 1.67525 5.93038 1.41055 5.85465 1.27744C5.53672 0.687658 4.72638 0.427475 3.9663 0.810397C3.64234 0.974308 2.90509 1.39118 2.21104 1.88257C1.86411 2.12741 1.5313 2.38879 1.26506 2.65622C1.00075 2.92222 0.76515 3.16837 0.741377 3.58144ZM1.63395 3.68774C1.63115 3.72968 1.7067 3.5234 1.91538 3.31331C2.12598 3.10179 2.43008 2.86025 2.75409 2.63095C3.40211 2.17235 4.14301 1.75434 4.40511 1.6223C4.82081 1.41218 5.06386 1.64983 5.07413 1.66925L5.07877 1.67535L5.07994 1.68085C5.10705 1.72436 5.2675 2.03807 5.46499 2.43409C5.66267 2.82839 5.91093 3.32675 6.1569 3.83003C6.64957 4.82963 7.15256 5.86458 7.23108 6.03706L7.23089 6.03879C7.26155 6.11472 7.24965 6.40256 7.04841 6.65811L7.04244 6.66416L7.03802 6.67224C6.77143 7.04036 5.69897 8.45525 5.69897 8.45525L5.54816 8.654L5.65095 8.89601C5.65095 8.89601 6.19846 10.1719 8.16243 12.7057C8.16243 12.7057 8.16417 12.706 8.16398 12.7077C8.16398 12.7077 8.16398 12.7077 8.16572 12.708C10.0882 15.2329 11.1629 16.1356 11.1629 16.1356L11.3723 16.3092L11.614 16.2179C11.614 16.2179 13.2825 15.5851 13.713 15.4341C14.07 15.3076 14.3617 15.4069 14.3567 15.4043L14.3648 15.411L14.3747 15.418C14.6507 15.6453 17.8773 18.527 18.0327 18.6755C18.0488 18.6906 18.2127 18.989 17.8947 19.3254C17.6984 19.5358 17.088 20.1193 16.4652 20.6069C16.1522 20.8487 15.8359 21.0722 15.5707 21.2161C15.3075 21.3586 15.0816 21.3855 15.1077 21.3899C14.712 21.303 13.8984 21.1536 12.4625 20.1875C11.0083 19.2112 8.97593 17.4028 6.4 14.0223C3.82408 10.6418 2.62553 8.21202 2.07659 6.55945C1.52766 4.90687 1.61188 4.0852 1.63395 3.68774Z" fill="black"/>
</svg>
