<svg width="21" height="27" viewBox="0 0 21 27" fill="none" xmlns="http://www.w3.org/2000/svg">
<path d="M10.3268 0.543421C10.3037 0.547582 10.2807 0.553823 10.2597 0.560064C10.0099 0.616233 9.83357 0.838829 9.83987 1.09263V17.3692L6.4647 14.024C6.33456 13.8908 6.14355 13.8347 5.96094 13.8742C5.75944 13.9096 5.59782 14.0552 5.54114 14.2487C5.48447 14.4442 5.54324 14.6522 5.69227 14.7895L9.991 19.0501L10.3772 19.4162L10.7634 19.0501L15.0621 14.7895C15.2762 14.5774 15.2762 14.2362 15.0621 14.024C14.8481 13.8118 14.5038 13.8118 14.2897 14.024L10.9146 17.3692V1.09263C10.9208 0.938685 10.8579 0.790981 10.7466 0.686964C10.6333 0.580868 10.4801 0.528859 10.3268 0.543421ZM0.705078 8.54855V26.6558H20.0493V8.54855H14.6759C14.4828 8.54646 14.3023 8.64632 14.2037 8.81275C14.1071 8.97917 14.1071 9.18305 14.2037 9.34947C14.3023 9.5159 14.4828 9.61576 14.6759 9.61368H18.9747V25.5906H1.77976V9.61368H6.07848C6.27159 9.61576 6.4521 9.5159 6.55076 9.34947C6.64731 9.18305 6.64731 8.97917 6.55076 8.81275C6.4521 8.64632 6.27159 8.54646 6.07848 8.54855H0.705078Z" fill="white"/>
</svg>
