<svg width="38" height="38" viewBox="0 0 38 38" fill="none" xmlns="http://www.w3.org/2000/svg">
<path d="M25.0869 0C24.5413 0 24.0105 0.232211 23.5924 0.643046L23.5687 0.619229L19.0852 5.07292C18.9636 5.14735 18.8658 5.25452 18.8005 5.38253L0.629378 23.4831C0.629378 23.492 0.629378 23.498 0.629378 23.5069C-0.209793 24.3494 -0.209793 25.7129 0.629378 26.5554L3.00159 28.9133C3.26847 29.1842 3.69547 29.2139 3.99792 28.9847C4.65028 28.4607 5.50131 28.0797 6.34642 28.0797C8.36576 28.0797 9.90474 29.6992 9.90474 31.6522C9.90474 32.5363 9.58449 33.3401 9.02702 33.9624C8.76311 34.269 8.78387 34.7304 9.07446 35.0103L11.423 37.3681C12.2621 38.2106 13.6202 38.2106 14.4594 37.3681L32.4171 19.339H32.4408C32.7314 19.2705 32.9538 19.0383 33.0101 18.7436C33.0101 18.7347 33.0101 18.7287 33.0101 18.7198L37.2327 14.5043C37.2623 14.4834 37.2771 14.4566 37.3038 14.4328C38.2171 13.6647 38.2142 12.2744 37.3987 11.4557L35.0265 9.09791C34.7596 8.827 34.3326 8.79723 34.0302 9.02646C33.3808 9.54745 32.6572 9.86004 31.7766 9.86004C29.7572 9.86004 28.1945 8.24052 28.1945 6.28756C28.1945 5.40337 28.5059 4.65315 29.0248 4.00117C29.2531 3.69751 29.2235 3.26882 28.9536 3.00088L26.6051 0.643046C26.187 0.22328 25.6385 0 25.0869 0ZM25.0869 1.54807C25.2559 1.54807 25.425 1.60166 25.5376 1.71479L27.4828 3.66774C27.0203 4.42987 26.6763 5.30215 26.6763 6.28756C26.6763 9.05921 28.9358 11.3843 31.7766 11.3843C32.761 11.3843 33.6032 11.039 34.3623 10.5745L36.3075 12.5275C36.5328 12.7537 36.5506 13.1259 36.3312 13.2896C36.2986 13.3105 36.266 13.3343 36.2363 13.3611L32.1798 17.4337C32.0256 17.2938 31.8181 17.2253 31.6105 17.2432C31.3258 17.27 31.0827 17.4545 30.9759 17.7225C30.8721 17.9874 30.9226 18.2911 31.1123 18.5054L13.3919 36.2964C13.1665 36.5226 12.7158 36.5226 12.4905 36.2964L10.5452 34.3434C11.0612 33.5456 11.423 32.6405 11.423 31.6522C11.423 28.8805 9.18714 26.5554 6.34642 26.5554C5.32933 26.5554 4.43678 26.9484 3.66581 27.4366L1.7206 25.4837C1.49524 25.2574 1.49524 24.8049 1.7206 24.5786L19.4885 6.83534C19.782 7.139 20.2654 7.14198 20.5678 6.84725C20.8703 6.55252 20.8733 6.06726 20.5797 5.7636L24.6362 1.71479C24.7489 1.60166 24.9179 1.54807 25.0869 1.54807ZM22.0268 7.66892L21.4574 8.04998L21.4337 8.74066L21.5998 8.95501L22.6435 10.0268L23.3077 10.2411L23.8534 9.83622L23.8771 9.16936L23.7347 8.93119L22.6673 7.88327L22.0268 7.66892ZM25.2055 10.8603L24.6599 11.2652L24.6362 11.9321L24.7785 12.1702L25.846 13.242L26.4865 13.4563L27.0558 13.0515L27.0796 12.3846L26.9372 12.1464L25.8697 11.0747L25.2055 10.8603ZM28.408 14.0756L27.8624 14.4566L27.8387 15.1473L27.981 15.3617L29.0485 16.4334L29.689 16.6477L30.2583 16.2667L30.2821 15.576L30.116 15.3617L29.0485 14.2899L28.408 14.0756Z" fill="#CC035C"/>
</svg>
